<svg width="32" height="32" viewBox="0 0 32 32" fill="none" xmlns="http://www.w3.org/2000/svg">
<path d="M0 0H32V32H0V0Z" fill="#147334"/>
<path fill-rule="evenodd" clip-rule="evenodd" d="M16 32C24.8366 32 32 24.8366 32 16C32 7.16344 24.8366 0 16 0C7.16344 0 0 7.16344 0 16C0 24.8366 7.16344 32 16 32ZM16 32C11.5817 32 8 24.8366 8 16C8 7.16344 11.5817 0 16 0C20.4183 0 24 7.16344 24 16C24 24.8366 20.4183 32 16 32Z" fill="#F6F5D9"/>
<path d="M10.3516 5.02734H15.2734C16.8281 5.02734 18.0039 5.14844 18.8008 5.39062C19.6055 5.63281 20.2539 6.125 20.7461 6.86719C21.2383 7.60156 21.4844 8.78906 21.4844 10.4297C21.4844 11.5391 21.3086 12.3125 20.957 12.75C20.6133 13.1875 19.9297 13.5234 18.9062 13.7578C20.0469 14.0156 20.8203 14.4453 21.2266 15.0469C21.6328 15.6406 21.8359 16.5547 21.8359 17.7891V19.5469C21.8359 20.8281 21.6875 21.7773 21.3906 22.3945C21.1016 23.0117 20.6367 23.4336 19.9961 23.6602C19.3555 23.8867 18.043 24 16.0586 24H10.3516V5.02734ZM15.2852 8.27344V12.4922C15.4961 12.4844 15.6602 12.4805 15.7773 12.4805C16.2617 12.4805 16.5703 12.3633 16.7031 12.1289C16.8359 11.8867 16.9023 11.2031 16.9023 10.0781C16.9023 9.48438 16.8477 9.07031 16.7383 8.83594C16.6289 8.59375 16.4844 8.44141 16.3047 8.37891C16.1328 8.31641 15.793 8.28125 15.2852 8.27344ZM15.2852 15.4453V20.7539C15.9805 20.7305 16.4219 20.6211 16.6094 20.4258C16.8047 20.2305 16.9023 19.75 16.9023 18.9844V17.2148C16.9023 16.4023 16.8164 15.9102 16.6445 15.7383C16.4727 15.5664 16.0195 15.4688 15.2852 15.4453Z" fill="#D95C3E"/>
</svg>
